<!-- <svg viewBox="0 0 200 200" xmlns="http://www.w3.org/2000/svg">
    <path fill="#FF0066"
        d="M52.6,-62.2C68.2,-49.5,81.1,-33,79.7,-17.5C78.4,-1.9,62.9,12.7,51.1,26C39.2,39.3,31.1,51.2,19.4,57.2C7.6,63.2,-7.8,63.4,-20,57.7C-32.2,52.1,-41.4,40.6,-47,28.4C-52.6,16.1,-54.7,3.1,-56.2,-13.7C-57.8,-30.4,-58.8,-50.8,-49.3,-64.6C-39.9,-78.4,-19.9,-85.6,-0.7,-84.8C18.5,-83.9,36.9,-74.9,52.6,-62.2Z"
        transform="translate(100 100)" />
</svg> -->
<!-- 
<svg viewBox="0 0 200 200" xmlns="http://www.w3.org/2000/svg">
    <path fill="#FF0066"
        d="M37.1,-34.6C47.9,-16,56.5,-0.6,55.4,16C54.3,32.7,43.6,50.5,28,58C12.4,65.4,-8.1,62.5,-29.5,54.7C-50.8,46.9,-73,34.3,-78.2,16.5C-83.4,-1.4,-71.6,-24.5,-55.7,-44.2C-39.8,-64,-19.9,-80.3,-3.4,-77.6C13.1,-74.9,26.3,-53.2,37.1,-34.6Z"
        transform="translate(100 100)" />
</svg> -->

<svg viewBox="0 0 200 200" xmlns="http://www.w3.org/2000/svg">
    <path fill="#FF0066"
        d="M65.7,-36.4C80,-13.2,82.8,18.1,69.9,41.3C57.1,64.5,28.5,79.5,0.5,79.3C-27.6,79,-55.2,63.4,-68.3,40.1C-81.4,16.7,-80,-14.3,-66.2,-37.3C-52.4,-60.2,-26.2,-75,-0.2,-74.9C25.7,-74.7,51.4,-59.6,65.7,-36.4Z"
        transform="translate(100 100)" />
</svg>